<svg width="64" height="64" fill="none" xmlns="http://www.w3.org/2000/svg"><g clip-path="url(#clip0)"><path d="M62.667 61.333H1.333a1.334 1.334 0 000 2.667h61.334a1.334 1.334 0 000-2.667z" fill="#BBB"/><path d="M12 45.333H4c-.736 0-1.333.598-1.333 1.334v16C2.667 63.403 3.264 64 4 64h8c.736 0 1.334-.597 1.334-1.334v-16c0-.735-.598-1.333-1.334-1.333zm-1.333 16H5.334V48h5.333v13.333zM28 32h-8c-.736 0-1.333.597-1.333 1.333v29.334c0 .736.597 1.333 1.333 1.333h8c.736 0 1.334-.597 1.334-1.333V33.333c0-.736-.598-1.333-1.334-1.333zm-1.333 29.333h-5.334V34.667h5.334v26.666zm17.333-24h-8c-.736 0-1.333.598-1.333 1.334v24c0 .736.597 1.333 1.333 1.333h8c.736 0 1.334-.597 1.334-1.333v-24c0-.736-.598-1.334-1.334-1.334zm-1.333 24h-5.334V40h5.334v21.333zm17.333-40h-8c-.736 0-1.333.598-1.333 1.334v40c0 .736.597 1.333 1.333 1.333h8c.736 0 1.334-.597 1.334-1.333v-40c0-.737-.598-1.334-1.334-1.334zm-1.333 40h-5.334V24h5.334v37.333z" fill="#BBB"/><path d="M8 24a5.339 5.339 0 00-5.333 5.333A5.339 5.339 0 008 34.667a5.339 5.339 0 005.333-5.334A5.339 5.339 0 008 24zm0 8a2.67 2.67 0 01-2.667-2.667A2.67 2.67 0 018 26.667a2.67 2.67 0 012.666 2.666A2.67 2.67 0 018 32zm16-21.334A5.339 5.339 0 0018.666 16 5.339 5.339 0 0024 21.333 5.339 5.339 0 0029.333 16 5.339 5.339 0 0024 10.666zm0 8A2.67 2.67 0 0121.333 16 2.67 2.67 0 0124 13.333 2.67 2.67 0 0126.666 16 2.67 2.67 0 0124 18.666zM40 16a5.339 5.339 0 00-5.334 5.333A5.339 5.339 0 0040 26.667a5.339 5.339 0 005.333-5.334A5.339 5.339 0 0040 16zm0 8a2.67 2.67 0 01-2.667-2.667A2.67 2.67 0 0140 18.667a2.67 2.67 0 012.666 2.666A2.67 2.67 0 0140 24zM56 0a5.339 5.339 0 00-5.334 5.333A5.339 5.339 0 0056 10.667a5.339 5.339 0 005.333-5.334A5.339 5.339 0 0056 0zm0 8a2.67 2.67 0 01-2.667-2.667A2.67 2.67 0 0156 2.667a2.67 2.67 0 012.666 2.666A2.67 2.67 0 0156 8z" fill="#E31E25"/><path d="M54.117 7.216a1.334 1.334 0 00-1.885 0L41.885 17.563a1.334 1.334 0 001.886 1.885L54.117 9.102c.52-.52.52-1.366 0-1.886zm-17.341 11.04l-8.566-2.443a1.32 1.32 0 00-1.645.918c-.203.71.208 1.445.915 1.648l8.565 2.442a1.334 1.334 0 00.73-2.565zm-14.856-.595a1.334 1.334 0 00-1.872-.213L9.995 25.464a1.332 1.332 0 00.832 2.376c.29 0 .584-.096.83-.288l10.052-8.016a1.332 1.332 0 00.211-1.875z" fill="#E31E25"/></g><defs><clipPath id="clip0"><path fill="#fff" d="M0 0h64v64H0z"/></clipPath></defs></svg>