<svg width="64" height="64" viewBox="0 0 64 64" fill="none" xmlns="http://www.w3.org/2000/svg">
<g clip-path="url(#clip0)">
<path d="M30.0964 17.0909C30.0836 16.5336 29.704 16.052 29.1651 15.9099L17.2462 12.7666C17.2453 12.7662 17.2443 12.7661 17.2435 12.7659L12.7546 11.582C12.2229 11.4415 11.6607 11.666 11.3717 12.1346C9.57381 15.0509 8.15993 18.2953 7.28293 21.5173C5.81893 26.8945 6.06743 31.5077 8.00156 34.8579C9.12056 36.7963 10.7627 38.2188 12.7917 39.0292L8.19606 55.9106L1.56905 54.1628C0.902045 53.9868 0.217669 54.3851 0.0416688 55.0527C-0.134457 55.7202 0.263919 56.4041 0.931545 56.5802C0.932171 56.5803 8.74731 58.6416 8.74794 58.6418C8.74856 58.642 16.5831 60.7082 16.5838 60.7083C16.6906 60.7365 16.7978 60.75 16.9035 60.75C17.4573 60.75 17.9635 60.3791 18.1112 59.8185C18.2873 59.151 17.889 58.4671 17.2213 58.291L10.6136 56.5482L15.2083 39.6703C15.6587 39.7327 16.1094 39.7648 16.5571 39.7648C22.131 39.7648 26.7343 35.0793 28.871 27.231C29.7482 24.0084 30.1719 20.5019 30.0964 17.0909ZM26.4585 26.5744C24.6361 33.2683 20.9347 37.2648 16.5568 37.2648C15.9192 37.2648 15.2699 37.1788 14.6268 37.0092C12.7003 36.501 11.1579 35.3249 10.1668 33.6079C8.99094 31.571 8.59506 28.8839 8.98394 25.7189C10.6529 25.9904 12.2289 26.0956 13.7226 26.0956C16.1806 26.0956 18.4201 25.8184 20.5021 25.5606C22.8507 25.2699 24.9351 25.013 26.7876 25.2448C26.6867 25.6928 26.5776 26.1366 26.4585 26.5744ZM27.2441 22.7849C25.0282 22.4833 22.6688 22.7734 20.1952 23.0796C17.0315 23.4713 13.4839 23.9101 9.42306 23.2593C9.50544 22.902 9.59544 22.5406 9.69531 22.174C10.4318 19.4683 11.5773 16.743 13.0264 14.2393L15.0126 14.7631C14.6526 15.4569 14.3206 16.1696 14.0619 16.75C13.7809 17.3805 14.0643 18.1195 14.6948 18.4006C14.8602 18.4744 15.0329 18.5093 15.2029 18.5093C15.6813 18.5093 16.1381 18.233 16.3454 17.7679C16.7498 16.8606 17.145 16.0558 17.4973 15.4184L27.6043 18.0839C27.594 19.6523 27.4718 21.2331 27.2441 22.7849Z" fill="#BBBBBB"/>
<path d="M55.252 58.6418C55.2515 58.6421 55.2509 58.6421 55.2504 58.6422L47.4785 60.692C48.2101 60.4989 55.2527 58.6417 55.252 58.6418Z" fill="#E31E25"/>
<path d="M47.4786 60.6917C47.4385 60.7023 47.4163 60.7081 47.4163 60.7081L47.4786 60.6917Z" fill="#E31E25"/>
<path d="M63.9583 55.0526C63.7824 54.3851 63.0979 53.9871 62.4309 54.1628L55.8038 55.9105L51.2081 39.0289C53.2371 38.2185 54.8793 36.796 55.9981 34.8576C57.9323 31.5073 58.1808 26.8942 56.7169 21.5171C55.8398 18.2951 54.4259 15.0507 52.628 12.1344C52.3389 11.6658 51.7771 11.4412 51.2451 11.5818L34.8348 15.9098C34.296 16.0519 33.9162 16.5336 33.9038 17.0908C33.8358 20.1602 34.1733 23.3058 34.8806 26.2532C34.8885 26.2946 34.8982 26.3356 34.9101 26.3757C34.9802 26.6626 35.0523 26.9483 35.1293 27.2311C37.2656 35.0787 41.8687 39.7644 47.4429 39.7649C47.4431 39.7649 47.4434 39.7649 47.4437 39.7649C47.8911 39.7649 48.3417 39.7327 48.7919 39.6704L53.3866 56.5483L46.7789 58.291C46.1112 58.467 45.7129 59.1509 45.889 59.8185C46.0369 60.3793 46.543 60.75 47.0967 60.75C47.2022 60.75 47.3096 60.7365 47.4164 60.7084L55.2501 58.6421C55.2503 58.6421 55.2504 58.6421 55.2505 58.6421L63.0686 56.5803C63.736 56.4041 64.1344 55.7201 63.9583 55.0526ZM36.3958 18.0834L50.9734 14.2389C52.4226 16.7427 53.5681 19.4679 54.3046 22.1738C54.5183 22.9586 54.691 23.7217 54.8246 24.4622C54.0643 24.3868 53.2894 24.3752 52.5 24.4067C52.3659 23.4916 52.1682 22.5377 52 21.7978C51.8471 21.1247 51.177 20.7028 50.5041 20.8559C49.8309 21.0089 49.4091 21.6787 49.5622 22.3519C49.7519 23.1861 49.901 23.9547 50.0026 24.6132C49.4366 24.6777 48.8645 24.7505 48.2857 24.8242C45.0406 25.2383 41.3872 25.704 37.1458 24.9474C36.6665 22.7214 36.4106 20.3892 36.3958 18.0834ZM47.4437 37.2646C47.4435 37.2646 47.4432 37.2646 47.4431 37.2646C43.2907 37.2642 39.7481 33.6672 37.8392 27.5855C39.2328 27.7766 40.5586 27.8545 41.8225 27.8545C44.288 27.8545 46.5242 27.5691 48.6024 27.304C51.0532 26.9913 53.2129 26.7162 55.133 27.0181C55.2786 29.6225 54.8444 31.8557 53.833 33.6076C52.8417 35.3246 51.2995 36.5008 49.373 37.0088C48.7299 37.1787 48.0809 37.2646 47.4437 37.2646Z" fill="#E31E25"/>
<path d="M32 3.25024C31.3098 3.25024 30.75 3.80987 30.75 4.50025V7.76063C30.75 8.451 31.3098 9.01063 32 9.01063C32.6903 9.01063 33.25 8.451 33.25 7.76063V4.50025C33.25 3.80987 32.6904 3.25024 32 3.25024Z" fill="#BBBBBB"/>
<path d="M27.9533 9.38045L26.297 6.55682C25.9476 5.96132 25.1819 5.76157 24.5862 6.11107C23.9907 6.46032 23.7912 7.22619 24.1405 7.8217L25.7967 10.6453C26.0295 11.0421 26.4471 11.2631 26.8763 11.2631C27.0911 11.2631 27.3088 11.2077 27.5075 11.0911C28.103 10.7418 28.3025 9.97595 27.9533 9.38045Z" fill="#E31E25"/>
<path d="M39.4138 6.11101C38.8182 5.76164 38.0524 5.96126 37.7031 6.55676L36.0468 9.38039C35.6974 9.97577 35.8971 10.7418 36.4926 11.091C36.6913 11.2076 36.9089 11.263 37.1238 11.263C37.5528 11.263 37.9704 11.042 38.2033 10.6453L39.8596 7.82164C40.2088 7.22614 40.0092 6.46026 39.4138 6.11101Z" fill="#E31E25"/>
<path d="M51.0708 18.3423C51.0702 18.3407 51.0692 18.3376 51.0683 18.3347C50.8642 17.6806 50.1704 17.3118 49.5137 17.5102C48.8527 17.7097 48.4787 18.4072 48.6782 19.0681C48.6804 19.0747 48.6842 19.087 48.6864 19.0942C48.8552 19.6265 49.347 19.967 49.8777 19.967C50.0015 19.967 50.1277 19.9483 50.2522 19.9092C50.9109 19.7026 51.2773 19.0011 51.0708 18.3423Z" fill="#E31E25"/>
<path d="M13.7498 21.7495C14.4401 21.7495 14.9998 21.1899 14.9998 20.4995C14.9998 19.8092 14.4401 19.2495 13.7498 19.2495C13.0594 19.2495 12.4998 19.8092 12.4998 20.4995C12.4998 21.1899 13.0594 21.7495 13.7498 21.7495Z" fill="#BBBBBB"/>
</g>
<defs>
<clipPath id="clip0">
<rect width="64" height="64" fill="white"/>
</clipPath>
</defs>
</svg>
