<svg width="64" height="64" fill="none" xmlns="http://www.w3.org/2000/svg"><g clip-path="url(#clip0)"><path d="M63.74 27.295L53.026 13.38a1.255 1.255 0 00-1.668-.293l-6.916 4.398h-9.02c-.116 0-.233.025-.345.058l-6.994 2.013-7.256-1.985-7.052-4.484a1.254 1.254 0 00-1.65.27L.278 28.033a1.255 1.255 0 00.159 1.74l6.21 5.344 5.57 7.508a4.44 4.44 0 00.098 6.169 4.416 4.416 0 002.69 1.274 4.473 4.473 0 00-.051.678c0 1.185.461 2.298 1.299 3.136a4.406 4.406 0 003.136 1.3l.047-.002-.002.09c0 1.185.462 2.298 1.299 3.136a4.408 4.408 0 003.829 1.245 4.412 4.412 0 001.275 2.7 4.42 4.42 0 003.136 1.297 4.422 4.422 0 003.136-1.297l.678-.678.285.23a4.42 4.42 0 003.084 1.245 4.42 4.42 0 003.136-1.297 4.423 4.423 0 001.296-3.206 4.426 4.426 0 004.502-4.499 4.41 4.41 0 003.205-1.298 4.422 4.422 0 001.296-3.206 4.423 4.423 0 003.206-1.296 4.442 4.442 0 00.583-5.552l4.068-8.52 6.116-5.262a1.255 1.255 0 00.175-1.717zM13.374 15.806l5.07 3.224-11.03 13.438-4.42-3.804 10.38-12.858zm.715 28.49l1.53-1.53a1.92 1.92 0 011.19-.556l.034-.001a1.914 1.914 0 011.538.596c.708.75.67 1.974-.085 2.73l-1.484 1.484c-.75.75-1.972.75-2.723 0a1.928 1.928 0 010-2.723zm3.937 7.81a1.91 1.91 0 01-.564-1.36c0-.514.2-.998.564-1.361l2.968-2.968a1.945 1.945 0 012.188-.378 1.919 1.919 0 011.06 1.988 2.031 2.031 0 01-.572 1.16l-2.92 2.92a1.913 1.913 0 01-1.362.564c-.514 0-.998-.2-1.362-.564zm4.48 4.525a1.91 1.91 0 01-.563-1.361c0-.514.2-.998.564-1.361l2.967-2.968a1.947 1.947 0 012.327-.305 1.916 1.916 0 01.919 1.945 2.034 2.034 0 01-.57 1.13l-2.92 2.92a1.912 1.912 0 01-1.362.564c-.514 0-.997-.2-1.361-.564zm5.104 3.945a1.927 1.927 0 010-2.722l1.53-1.53a2.016 2.016 0 01.149-.134 1.92 1.92 0 011.038-.422c.022-.002.044-.002.067-.003a1.912 1.912 0 011.632.744c.577.754.499 1.875-.217 2.592l-1.476 1.476c-.75.75-1.972.75-2.723 0zm23.411-14.005c-.75.75-1.972.75-2.722 0a1.158 1.158 0 00-.086-.077l-8.069-8.154a1.255 1.255 0 00-1.784 1.765l8.157 8.242.003.003a1.928 1.928 0 01-1.362 3.287c-.514 0-.998-.2-1.361-.564L38.34 45.56a1.255 1.255 0 10-1.783 1.765l5.373 5.429c.027.034.056.067.088.098.75.75.75 1.972 0 2.723a1.93 1.93 0 01-2.724 0l-2.977-3.01a1.255 1.255 0 00-1.785 1.765l2.895 2.925c.028.034.057.067.089.098.75.751.75 1.973 0 2.723-.75.751-1.972.75-2.723 0-.086-.086-.188-.153-.284-.227-.082-.062-.104-.106-.063-.205.042-.102.104-.193.145-.294.046-.114.083-.23.12-.348.192-.62.248-1.287.162-1.93A4.416 4.416 0 0033 54.018a4.42 4.42 0 00-1.867-.724c.323-1.426-.065-2.972-1.075-4.039a4.402 4.402 0 00-3.293-1.387 4.43 4.43 0 00-1.187-3.137 4.404 4.404 0 00-3.16-1.387 4.51 4.51 0 00-1.072.114 4.401 4.401 0 00-1.466-2.69 4.399 4.399 0 00-2.837-1.076 4.445 4.445 0 00-3.03 1.14l-4.85-6.537 11.605-14.138 3.698 1.011-4.83 8.524a4.405 4.405 0 00-.416 3.369 4.405 4.405 0 002.284 2.78l.015.008a4.405 4.405 0 003.159.304 4.407 4.407 0 002.675-2.088l3.14-5.54 5.604.398 14.925 14.925c.75.751.75 1.972 0 2.723zm.52-5.753l-14.001-14a1.256 1.256 0 00-.798-.364l-6.863-.488a1.276 1.276 0 00-1.181.634l-3.53 6.228c-.253.447-.666.77-1.161.906a1.913 1.913 0 01-1.462-.18 1.913 1.913 0 01-.907-1.162 1.91 1.91 0 01.18-1.462l4.712-8.315 1.91-.55.037-.012 7.126-2.058h8.609L54.96 33.658l-3.419 7.16zm5.063-9.13l-9.94-12.642 5.073-3.226 9.288 12.064-4.42 3.805z" fill="#BBB"/><path d="M38.773 15.129c.321 0 .642-.123.888-.368l8.572-8.572a1.255 1.255 0 10-1.775-1.775l-8.572 8.572a1.255 1.255 0 00.887 2.143zm-14.433-.368a1.252 1.252 0 001.774 0c.49-.49.49-1.284 0-1.775l-8.572-8.572a1.255 1.255 0 10-1.775 1.775l8.572 8.572zm7.66.368c.693 0 1.255-.562 1.255-1.255V6.78a1.255 1.255 0 00-2.51 0v7.094c0 .693.562 1.255 1.255 1.255zM30.842 2.231c.199.483.696.8 1.22.773a1.267 1.267 0 001.132-.87 1.264 1.264 0 00-.43-1.378 1.269 1.269 0 00-1.46-.048 1.264 1.264 0 00-.462 1.523z" fill="#E31E25"/></g><defs><clipPath id="clip0"><path fill="#fff" d="M0 0h64v64H0z"/></clipPath></defs></svg>