<svg width="64" height="64" viewBox="0 0 64 64" fill="none" xmlns="http://www.w3.org/2000/svg">
<path d="M32 9.48145C20.89 9.48145 11.8518 18.5197 11.8518 29.6296C11.8518 38.0586 17.056 45.5253 24.8888 48.474V59.2592C24.8888 59.9146 25.4186 60.4444 26.074 60.4444H27.2592V62.8148C27.2592 63.4702 27.789 64 28.4444 64H35.5555C36.2109 64 36.7407 63.4702 36.7407 62.8148V60.4444H37.9259C38.5813 60.4444 39.1111 59.9146 39.1111 59.2592V48.474C46.944 45.5253 52.1481 38.0586 52.1481 29.6296C52.1481 18.5197 43.1099 9.48145 32 9.48145ZM35.5555 58.074C34.9001 58.074 34.3703 58.6038 34.3703 59.2592V61.6296H29.6296V59.2592C29.6296 58.6038 29.0998 58.074 28.4444 58.074H27.2592V52.1481H36.7407V58.074H35.5555ZM37.5561 46.509C37.069 46.669 36.7407 47.1241 36.7407 47.6349V49.7777H27.2592V47.6349C27.2592 47.1229 26.9309 46.669 26.4438 46.509C19.1348 44.1054 14.2222 37.3214 14.2222 29.6296C14.2222 19.8269 22.1973 11.8518 32 11.8518C41.8026 11.8518 49.7777 19.8269 49.7777 29.6296C49.7777 37.3214 44.8651 44.1054 37.5561 46.509Z" fill="#BBBBBB"/>
<path d="M31.9999 7.11111C32.6553 7.11111 33.1851 6.58133 33.1851 5.92593V1.18519C33.1851 0.529778 32.6553 0 31.9999 0C31.3445 0 30.8147 0.529778 30.8147 1.18519V5.92593C30.8147 6.58133 31.3445 7.11111 31.9999 7.11111Z" fill="#E31E25"/>
<path d="M60.4445 28.4443H55.7037C55.0483 28.4443 54.5186 28.9741 54.5186 29.6295C54.5186 30.2849 55.0483 30.8147 55.7037 30.8147H60.4445C61.0999 30.8147 61.6297 30.2849 61.6297 29.6295C61.6297 28.9741 61.0999 28.4443 60.4445 28.4443Z" fill="#E31E25"/>
<path d="M8.29629 28.4443H3.55555C2.90014 28.4443 2.37036 28.9741 2.37036 29.6295C2.37036 30.2849 2.90014 30.8147 3.55555 30.8147H8.29629C8.9517 30.8147 9.48147 30.2849 9.48147 29.6295C9.48147 28.9741 8.9517 28.4443 8.29629 28.4443Z" fill="#E31E25"/>
<path d="M51.2759 8.67792L47.9242 12.0296C47.4608 12.493 47.4608 13.2421 47.9242 13.7055C48.1553 13.9366 48.4587 14.0527 48.7621 14.0527C49.0655 14.0527 49.369 13.9366 49.6001 13.7055L52.9518 10.3538C53.4152 9.89037 53.4152 9.14133 52.9518 8.67792C52.4884 8.21451 51.7381 8.2157 51.2759 8.67792Z" fill="#E31E25"/>
<path d="M14.3999 45.5539L11.0482 48.9056C10.5848 49.369 10.5848 50.118 11.0482 50.5814C11.2794 50.8125 11.5828 50.9287 11.8862 50.9287C12.1896 50.9287 12.493 50.8125 12.7241 50.5814L16.0758 47.2297C16.5392 46.7663 16.5392 46.0173 16.0758 45.5539C15.6124 45.0904 14.8633 45.0904 14.3999 45.5539Z" fill="#E31E25"/>
<path d="M49.6001 45.5539C49.1367 45.0904 48.3876 45.0904 47.9242 45.5539C47.4608 46.0173 47.4608 46.7663 47.9242 47.2297L51.2759 50.5814C51.507 50.8125 51.8104 50.9287 52.1138 50.9287C52.4172 50.9287 52.7207 50.8125 52.9518 50.5814C53.4152 50.118 53.4152 49.369 52.9518 48.9056L49.6001 45.5539Z" fill="#E31E25"/>
<path d="M14.3999 13.7054C14.6311 13.9365 14.9345 14.0527 15.2379 14.0527C15.5413 14.0527 15.8447 13.9365 16.0758 13.7054C16.5392 13.242 16.5392 12.493 16.0758 12.0296L12.7241 8.67788C12.2607 8.21447 11.5116 8.21447 11.0482 8.67788C10.5848 9.14129 10.5848 9.89032 11.0482 10.3537L14.3999 13.7054Z" fill="#E31E25"/>
<path d="M32.0001 15.4075C24.1577 15.4075 17.7778 21.7873 17.7778 29.6297C17.7778 30.2851 18.3076 30.8149 18.963 30.8149C19.6184 30.8149 20.1482 30.2851 20.1482 29.6297C20.1482 23.0946 25.4649 17.7778 32.0001 17.7778C32.6555 17.7778 33.1852 17.2481 33.1852 16.5927C33.1852 15.9372 32.6555 15.4075 32.0001 15.4075Z" fill="#E31E25"/>
</svg>
