<svg width="64" height="64" fill="none" xmlns="http://www.w3.org/2000/svg"><g clip-path="url(#clip0)"><path d="M25.899 32.866a1.26 1.26 0 00-.884-.366c-.329 0-.651.134-.884.366a1.26 1.26 0 00-.366.884c0 .329.134.651.366.884.233.232.555.366.884.366.329 0 .651-.134.884-.366.232-.233.366-.555.366-.884a1.26 1.26 0 00-.366-.884z" fill="#BBB"/><path d="M57.75 0H22.889a1.25 1.25 0 100 2.5H57.75a3.754 3.754 0 013.75 3.75v22.5a3.754 3.754 0 01-3.75 3.75H30.042a1.25 1.25 0 000 2.5H57.75A6.257 6.257 0 0064 28.75V6.25A6.257 6.257 0 0057.75 0z" fill="#E31E25"/><path d="M57.75 5h-35c-.69 0-1.25.56-1.25 1.25v2.375a1.25 1.25 0 102.5 0V7.5h32.5v20H35.81l5.377-5.378 2.512 2.512a1.25 1.25 0 001.768 0l5.577-5.577a1.249 1.249 0 002.498-.05v-3.014c0-.69-.56-1.25-1.25-1.25h-3.014a1.25 1.25 0 100 2.5h.045l-4.74 4.74-2.511-2.513a1.25 1.25 0 00-1.768 0l-8.03 8.03h-6.816a1.25 1.25 0 100 2.5H57.75c.69 0 1.25-.56 1.25-1.25V6.25C59 5.56 58.44 5 57.75 5z" fill="#E31E25"/><path d="M31.516 12.167H17.679a6.795 6.795 0 001.55-4.327V6.827A6.834 6.834 0 0012.403 0a6.834 6.834 0 00-6.827 6.826V7.84c0 1.641.583 3.148 1.55 4.327H6.84A6.848 6.848 0 000 19.007v13.002c0 3.374 2.456 6.183 5.674 6.739V62.75c0 .69.56 1.25 1.25 1.25h12c.69 0 1.25-.56 1.25-1.25V50.632a1.25 1.25 0 10-2.5 0V61.5h-3.5V40.413a1.25 1.25 0 00-2.5 0V61.5h-3.5V34.944h9.5v6.02a1.25 1.25 0 002.5 0V20.258h16.932c.69 0 1.25-.56 1.25-1.25a6.848 6.848 0 00-6.84-6.84zm-23.44-5.34A4.331 4.331 0 0112.403 2.5a4.331 4.331 0 014.326 4.326V7.84a4.331 4.331 0 01-4.326 4.327A4.331 4.331 0 018.076 7.84V6.826zm10.931 10.93l-.042.002-.041-.002c-.69 0-1.25.56-1.25 1.25v13.438h-9.5V19.007a1.25 1.25 0 10-2.5 0v17.182a4.347 4.347 0 01-3.174-4.18V19.007a4.345 4.345 0 014.34-4.34h4.313V17.5a1.25 1.25 0 102.5 0v-2.833h17.863a4.348 4.348 0 014.157 3.09H19.007z" fill="#BBB"/><path d="M19.808 44.831a1.26 1.26 0 00-.884-.366 1.26 1.26 0 00-.884.366 1.26 1.26 0 00-.366.884c0 .329.134.651.366.884.233.232.555.366.884.366.329 0 .651-.134.884-.366a1.26 1.26 0 00.366-.884 1.26 1.26 0 00-.366-.884z" fill="#BBB"/></g><defs><clipPath id="clip0"><path fill="#fff" d="M0 0h64v64H0z"/></clipPath></defs></svg>