<svg width="81" height="70" fill="none" xmlns="http://www.w3.org/2000/svg"><g clip-path="url(#clip0)" fill-rule="evenodd" clip-rule="evenodd"><path d="M49.348 15.473l21.916 37.975h-8.57l-12.976-22.47-4.038 6.966h-9.308l12.976-22.47z" fill="#3C3C3B"/><path d="M40.41 0l4.284 7.428C37.265 20.282 29.837 33.166 22.408 46.02h26.694l4.284 7.429H9.556L40.408 0z" fill="#C41622"/><path d="M40.41 0L9.554 53.448l12.854-7.429L40.409 0z" fill="#E30613"/><path d="M9.555 53.448l12.854-7.429 30.977 7.429H9.556z" fill="#A51916"/><path d="M71.264 53.448h-8.57L49.349 15.473l21.916 37.975z" fill="#000"/><path d="M36.372 37.944h9.308l3.668-22.47-12.976 22.47z" fill="#575756"/><path d="M9.555 53.448l12.854-7.429 13.007-33.258-13.624 32.734-12.237 7.953z" fill="#EA5358"/><path d="M49.595 18.186L45.68 37.944l3.668-22.47L59.705 44.91l-10.11-26.724z" fill="#706F6F"/></g><g clip-path="url(#clip1)" fill-rule="evenodd" clip-rule="evenodd" fill="#fff"><path d="M4.87 69.476v-1.264c-1.418-.03-2.59-.431-3.483-1.233C.462 66.21 0 65.161 0 63.866c0-1.356.432-2.404 1.295-3.175.863-.74 2.034-1.14 3.575-1.202v-.924h2.497v.924c1.51.062 2.712.463 3.575 1.202.863.74 1.295 1.819 1.295 3.175 0 1.264-.463 2.312-1.356 3.113-.894.802-2.066 1.202-3.514 1.233v1.264H4.87zm0-3.39v-4.47c-.801.062-1.356.308-1.726.709-.37.4-.555.925-.555 1.572-.03 1.295.74 2.034 2.281 2.188zm2.497 0c1.541-.155 2.312-.894 2.312-2.22 0-.647-.185-1.171-.555-1.572-.37-.4-.956-.616-1.726-.709v4.5h-.031zM69.507 70v-2.928h.894c.924-1.172 1.418-3.02 1.418-5.58v-2.65h7.829v8.23h1.14V70H78.6v-.801h-6.905V70h-2.188zm3.606-2.928h4.038v-6.103h-2.928v.832c0 2.343-.37 4.1-1.11 5.27zM24.782 64.02c0-3.02-2.466-5.455-5.487-5.455a5.446 5.446 0 00-5.455 5.455 5.446 5.446 0 005.455 5.456c3.021 0 5.487-2.435 5.487-5.456zm-2.343 0a3.157 3.157 0 01-3.144 3.144 3.157 3.157 0 01-3.144-3.144 3.157 3.157 0 013.144-3.144 3.137 3.137 0 013.144 3.144zm4.347-5.178h5.548a3.986 3.986 0 013.976 3.976 3.986 3.986 0 01-3.976 3.976h-3.052v2.374h-2.496V58.842zm2.496 5.949h2.682a1.934 1.934 0 001.942-1.942 1.954 1.954 0 00-1.942-1.942h-2.682v3.884zm30.731-5.949h5.548a3.986 3.986 0 013.977 3.976 3.986 3.986 0 01-3.977 3.976H62.51v2.374h-2.497V58.842zm2.497 5.949h2.682a1.934 1.934 0 001.941-1.942 1.954 1.954 0 00-1.941-1.942H62.51v3.884zm-24.443 4.408V58.842h6.072c1.634 0 2.99 1.356 2.99 2.99 0 .77-.308 1.48-.801 2.034.493.555.801 1.326.801 2.158 0 1.757-1.356 3.175-2.99 3.175h-6.072zm2.404-8.354v2.004h3.39a.993.993 0 00.987-.986.993.993 0 00-.986-.987h-3.39v-.03zm0 4.1v2.127h3.39c.556 0 .987-.493.987-1.079s-.462-1.079-.986-1.079h-3.39v.031zm7.244 4.254l4.346-10.357h2.435l4.315 10.357h-2.774l-.432-1.172H50.86l-.432 1.172h-2.712zm7.15-3.175l-1.633-4.408-1.634 4.408h3.268z"/></g><defs><clipPath id="clip0"><path fill="#fff" d="M9.555 0h61.709v53.448H9.555z"/></clipPath><clipPath id="clip1"><path fill="#fff" d="M0 58.565h80.788V70H0z"/></clipPath></defs></svg>