<svg width="21" height="24" viewBox="0 0 21 24" fill="none" xmlns="http://www.w3.org/2000/svg">
<path d="M9 0C10.9734 2.35327e-08 12.9164 0.486685 14.6568 1.41695C16.3972 2.34721 17.8813 3.69233 18.9776 5.33316C20.074 6.97399 20.7488 8.85989 20.9422 10.8238C21.1356 12.7877 20.8417 14.769 20.0865 16.5922C19.3314 18.4154 18.1382 20.0242 16.6127 21.2761C15.0872 22.5281 13.2766 23.3844 11.3411 23.7694C9.40557 24.1544 7.405 24.0561 5.51657 23.4833C3.62813 22.9104 1.91012 21.8807 0.514705 20.4853L1.54177 19.4582C2.76828 20.6847 4.27835 21.5898 5.9382 22.0933C7.59806 22.5969 9.35648 22.6832 11.0577 22.3448C12.7589 22.0065 14.3504 21.2537 15.6913 20.1533C17.0321 19.053 18.0808 17.6389 18.7446 16.0364C19.4084 14.4339 19.6667 12.6924 19.4967 10.9662C19.3267 9.23997 18.7336 7.58235 17.7699 6.14012C16.8063 4.69789 15.5018 3.51559 13.9721 2.69793C12.4423 1.88026 10.7345 1.45249 9 1.45249V0Z" fill="white"/>
</svg>
